<svg width="17" height="19" viewBox="0 0 17 19" fill="none" xmlns="http://www.w3.org/2000/svg">
<path fill-rule="evenodd" clip-rule="evenodd" d="M6.81388 16.8844C7.27165 17.3943 7.85932 17.6744 8.46909 17.6744H8.46997C9.08239 17.6744 9.67272 17.3943 10.1314 16.8835C10.377 16.6122 10.7959 16.5901 11.0672 16.8349C11.3394 17.0797 11.3615 17.4994 11.1167 17.7707C10.4027 18.5634 9.46328 19 8.46997 19H8.46821C7.47755 18.9991 6.53993 18.5626 5.82853 17.7699C5.58374 17.4986 5.60583 17.0788 5.87802 16.8349C6.15021 16.5892 6.56909 16.6113 6.81388 16.8844ZM8.5131 0C12.4412 0 15.08 3.05944 15.08 5.91651C15.08 7.38614 15.4538 8.00916 15.8506 8.67019C16.243 9.32237 16.6875 10.0629 16.6875 11.4627C16.3791 15.0392 12.6454 15.3308 8.5131 15.3308C4.38082 15.3308 0.646216 15.0392 0.34132 11.5193C0.338681 10.0629 0.783193 9.32237 1.17556 8.67019L1.31408 8.43702C1.65514 7.85085 1.94617 7.21324 1.94617 5.91651C1.94617 3.05944 4.58496 0 8.5131 0ZM8.5131 1.32558C5.42449 1.32558 3.27175 3.74521 3.27175 5.91651C3.27175 7.75377 2.76184 8.60302 2.31115 9.35242C1.9497 9.95423 1.66426 10.4297 1.66426 11.4627C1.81184 13.1294 2.91208 14.0052 8.5131 14.0052C14.0832 14.0052 15.2179 13.0906 15.3646 11.4053C15.3619 10.4297 15.0765 9.95423 14.7151 9.35242C14.2644 8.60302 13.7544 7.75377 13.7544 5.91651C13.7544 3.74521 11.6017 1.32558 8.5131 1.32558Z" fill="#696C85"/>
</svg>
