<svg width="24" height="18" viewBox="0 0 24 18" fill="none" xmlns="http://www.w3.org/2000/svg">
<path fill-rule="evenodd" clip-rule="evenodd" d="M11.6711 11.1644L11.7921 11.1645L12.0629 11.1654C14.1326 11.179 18.8625 11.3881 18.8625 14.5939C18.8625 17.7787 14.2975 17.9865 12.0952 18L11.2792 18C9.2094 17.9864 4.47863 17.7776 4.47863 14.5757C4.47863 11.3869 9.2094 11.1789 11.2792 11.1654L11.55 11.1645C11.592 11.1644 11.6324 11.1644 11.6711 11.1644ZM11.6711 12.7725C9.12387 12.7725 6.08672 13.0856 6.08672 14.5757C6.08672 16.0322 8.94259 16.3727 11.4383 16.392L11.6711 16.3929C14.2183 16.3929 17.2544 16.0809 17.2544 14.5939C17.2544 13.0888 14.2183 12.7725 11.6711 12.7725ZM20.1978 10.7294C22.7954 11.1185 23.3411 12.3385 23.3411 13.2937C23.3411 13.8769 23.1117 14.9415 21.5786 15.5258C21.4843 15.5612 21.3878 15.5783 21.2924 15.5783C20.9686 15.5783 20.6631 15.381 20.5409 15.0605C20.3822 14.6456 20.5913 14.1803 21.0061 14.0227C21.733 13.7462 21.733 13.4406 21.733 13.2937C21.733 12.8242 21.1359 12.4961 19.9587 12.3203C19.5203 12.2539 19.2169 11.8454 19.2823 11.4048C19.3477 10.9652 19.755 10.6726 20.1978 10.7294ZM4.05882 11.4048C4.12421 11.8454 3.82082 12.2539 3.38235 12.3203C2.20523 12.4961 1.60809 12.8242 1.60809 13.2937C1.60809 13.4406 1.60809 13.7451 2.33602 14.0227C2.7509 14.1803 2.95996 14.6456 2.80129 15.0605C2.67908 15.381 2.37354 15.5783 2.04978 15.5783C1.95436 15.5783 1.85788 15.5612 1.76354 15.5258C0.229421 14.9404 0 13.8759 0 13.2937C0 12.3396 0.545678 11.1185 3.14435 10.7294C3.58711 10.6736 3.99235 10.9652 4.05882 11.4048ZM11.6711 0C14.3727 0 16.5693 2.19772 16.5693 4.89824C16.5693 7.59876 14.3727 9.79648 11.6711 9.79648H11.6421C10.3342 9.79219 9.10886 9.27974 8.19117 8.35348C7.27135 7.4283 6.76855 6.19972 6.77387 4.89502C6.77387 2.19772 8.97056 0 11.6711 0ZM11.6711 1.60809C9.85715 1.60809 8.38198 3.08431 8.38198 4.89824C8.37879 5.77733 8.71541 6.5996 9.33185 7.22032C9.94828 7.84104 10.7695 8.18517 11.6443 8.18839L11.6711 8.99243V8.18839C13.485 8.18839 14.9612 6.71323 14.9612 4.89824C14.9612 3.08431 13.485 1.60809 11.6711 1.60809ZM18.3061 1.05008C20.1907 1.35991 21.5598 2.97228 21.5598 4.88377C21.5555 6.80811 20.1178 8.45908 18.2149 8.72603C18.1774 8.73139 18.1399 8.73353 18.1034 8.73353C17.7089 8.73353 17.3648 8.443 17.308 8.04098C17.2469 7.60036 17.5524 7.19405 17.993 7.13295C19.108 6.97643 19.9495 6.00943 19.9517 4.88162C19.9517 3.76346 19.1498 2.81791 18.0445 2.63673C17.6071 2.5649 17.3101 2.15109 17.3819 1.71261C17.4548 1.27414 17.8654 0.980398 18.3061 1.05008ZM5.96022 1.71261C6.03205 2.15109 5.73509 2.5649 5.29769 2.63673C4.19239 2.81791 3.39049 3.76346 3.39049 4.88377C3.39264 6.00943 4.2342 6.9775 5.34807 7.13295C5.78869 7.19405 6.09423 7.60036 6.03312 8.04098C5.9763 8.443 5.63217 8.73353 5.23765 8.73353C5.2012 8.73353 5.16368 8.73139 5.12616 8.72603C3.22325 8.45908 1.78669 6.80811 1.78241 4.88591C1.78241 2.97228 3.15142 1.35991 5.0361 1.05008C5.48744 0.979326 5.88732 1.27629 5.96022 1.71261Z" fill="#696C85"/>
</svg>
