<svg width="22" height="22" viewBox="0 0 22 22" fill="none" xmlns="http://www.w3.org/2000/svg">
<path fill-rule="evenodd" clip-rule="evenodd" d="M11 20.9C16.4676 20.9 20.9 16.4676 20.9 11C20.9 5.53245 16.4676 1.1 11 1.1C5.53245 1.1 1.1 5.53245 1.1 11C1.1 16.4676 5.53245 20.9 11 20.9ZM11 22C17.0753 22 22 17.0753 22 11C22 4.9247 17.0753 0 11 0C4.9247 0 0 4.9247 0 11C0 17.0753 4.9247 22 11 22Z" fill="white"/>
<path fill-rule="evenodd" clip-rule="evenodd" d="M4.9502 11C4.9502 10.8541 5.00814 10.7142 5.11129 10.6111C5.21443 10.508 5.35433 10.45 5.5002 10.45H16.5002C16.6461 10.45 16.786 10.508 16.8891 10.6111C16.9922 10.7142 17.0502 10.8541 17.0502 11C17.0502 11.1459 16.9922 11.2858 16.8891 11.3889C16.786 11.4921 16.6461 11.55 16.5002 11.55H5.5002C5.35433 11.55 5.21443 11.4921 5.11129 11.3889C5.00814 11.2858 4.9502 11.1459 4.9502 11Z" fill="white"/>
<path fill-rule="evenodd" clip-rule="evenodd" d="M10.9997 4.94995C11.1456 4.94995 11.2855 5.0079 11.3886 5.11104C11.4918 5.21419 11.5497 5.35408 11.5497 5.49995V16.5C11.5497 16.6458 11.4918 16.7857 11.3886 16.8889C11.2855 16.992 11.1456 17.05 10.9997 17.05C10.8538 17.05 10.7139 16.992 10.6108 16.8889C10.5077 16.7857 10.4497 16.6458 10.4497 16.5V5.49995C10.4497 5.35408 10.5077 5.21419 10.6108 5.11104C10.7139 5.0079 10.8538 4.94995 10.9997 4.94995Z" fill="white"/>
</svg>
